<svg xmlns="http://www.w3.org/2000/svg" viewBox="0 0 512 512">
<defs>
<linearGradient id="bg" x1="0" y1="0" x2="0" y2="1"><stop offset="0" stop-color="#315d31"/><stop offset="1" stop-color="#082719"/></linearGradient>
<linearGradient id="gold" x1="0" y1="0" x2="1" y2="1"><stop offset="0" stop-color="#fff0ad"/><stop offset=".5" stop-color="#e2b85d"/><stop offset="1" stop-color="#fff0ad"/></linearGradient>
</defs>
<rect x="8" y="8" width="496" height="496" rx="92" fill="url(#bg)" stroke="url(#gold)" stroke-width="8"/>
<circle cx="256" cy="145" r="47" fill="#fff3bd"/>
<g stroke="#f3d878" stroke-width="6" stroke-linecap="round"><path d="M256 78v-30"/><path d="M205 91l-19-25"/><path d="M307 91l19-25"/><path d="M175 121l-29-10"/><path d="M337 121l29-10"/></g>
<path d="M80 190L180 120l76 70 84-75 92 75v85H80Z" fill="#204d2b"/>
<path d="M80 205l85-60 80 60 90-67 97 67" fill="none" stroke="#5e9a4f" stroke-width="12"/>
<path d="M145 250Q205 215 256 250Q307 215 367 250l-19 80q-44-25-92 0-48-25-92 0Z" fill="#f6e9bc" stroke="#bd8c3a" stroke-width="7"/>
<path d="M256 245v78M145 250q56 17 111 40 55-23 111-40" fill="none" stroke="#bd8c3a" stroke-width="5"/>
<text x="256" y="405" text-anchor="middle" font-family="Georgia,serif" font-size="68" font-weight="700" fill="url(#gold)">AAG</text>
<text x="256" y="447" text-anchor="middle" font-family="Georgia,serif" font-size="25" font-weight="700" fill="#f8e8ad">ARAW-ARAW NA GABAY</text>
<text x="256" y="475" text-anchor="middle" font-family="Arial,sans-serif" font-size="12" fill="#f8e8ad">SALITA NG DIYOS • GABAY SA BUHAY • PAG-ASA</text>
</svg>