<svg xmlns="http://www.w3.org/2000/svg" viewBox="0 0 100 100" preserveAspectRatio="xMidYMid slice">
<defs><linearGradient id="g" x1="0" y1="0" x2="0" y2="1"><stop stop-color="#7fa6a0"/><stop offset=".58" stop-color="#d9e8d2"/><stop offset="1" stop-color="#3d6854"/></linearGradient></defs>
<rect width="100" height="100" fill="url(#g)"/>
<circle cx="20" cy="18" r="7" fill="#fff7cf" opacity=".8"/>
<polygon points="0,75 25,52 48,61 70,43 100,71" fill="#476b62" opacity=".82"/>
<polygon points="0,76 22,59 44,74 68,55 100,76" fill="#365b4d" opacity=".9"/>
<path d="M0 82 Q20 75 40 84 T80 79 T100 83 V100 H0Z" fill="#294d40"/>
<g fill="#193b31" opacity=".85">
<path d="M8 88 l4-16 4 16z"/><path d="M16 92 l4-20 4 20z"/><path d="M86 92 l4-18 4 18z"/><path d="M76 90 l4-14 4 14z"/>
</g><path d="M0 91 Q25 84 50 93 T100 89" fill="none" stroke="#b9d1b3" stroke-width="1.2" opacity=".7"/>
</svg>